<?xml version="1.0" encoding="UTF-8"?>
<svg version="1.1" xmlns="http://www.w3.org/2000/svg" width="32" height="32">
<path d="M0 0 C4.8846525 2.26787438 7.73212562 5.1153475 10 10 C10.75381535 15.5997712 10.77303575 20.33499991 8.375 25.5 C3.80134327 30.3143755 0.6912538 32.25156236 -6 32.5 C-12.6912538 32.25156236 -15.80134327 30.3143755 -20.375 25.5 C-22.77303575 20.33499991 -22.75381535 15.5997712 -22 10 C-17.52212837 0.3553534 -9.85292056 -1.32635469 0 0 Z " fill="#4ABC96" transform="translate(22,0)"/>
<path d="M0 0 C-0.33 1.32 -0.66 2.64 -1 4 C1.64 4.33 4.28 4.66 7 5 C7 6.32 7 7.64 7 9 C4.36 9.33 1.72 9.66 -1 10 C-0.67 11.32 -0.34 12.64 0 14 C-3.11259604 13.654156 -4.82872813 13.12620033 -7.375 11.25 C-9 9 -9 9 -9 6.5 C-7.06083307 1.65208268 -5.25978845 0 0 0 Z " fill="#EDF8F4" transform="translate(17,9)"/>
</svg>
