<?xml version="1.0" encoding="UTF-8"?>
<!DOCTYPE svg PUBLIC "-//W3C//DTD SVG 1.1//EN" "http://www.w3.org/Graphics/SVG/1.1/DTD/svg11.dtd">
<svg xmlns="http://www.w3.org/2000/svg" version="1.1" width="40px" height="40px" style="shape-rendering:geometricPrecision; text-rendering:geometricPrecision; image-rendering:optimizeQuality; fill-rule:evenodd; clip-rule:evenodd" xmlns:xlink="http://www.w3.org/1999/xlink">
<g><path style="opacity:0.996" fill="#fe5a54" d="M 232.5,-0.5 C 247.833,-0.5 263.167,-0.5 278.5,-0.5C 368.144,10.3879 435.644,54.7213 481,132.5C 497.695,163.971 507.861,197.304 511.5,232.5C 511.5,247.833 511.5,263.167 511.5,278.5C 510.234,289.623 508.234,300.623 505.5,311.5C 505.649,310.448 505.483,309.448 505,308.5C 454.333,249.833 403.667,191.167 353,132.5C 352.329,131.748 351.496,131.414 350.5,131.5C 341.86,116.503 328.86,108.003 311.5,106C 273.167,105.333 234.833,105.333 196.5,106C 174.843,110.991 161.01,124.158 155,145.5C 153.416,160.787 153.082,176.121 154,191.5C 155.627,196.618 158.793,200.285 163.5,202.5C 176.468,215.811 189.802,229.477 203.5,243.5C 195.826,243.334 188.159,243.5 180.5,244C 168.277,252.873 168.61,261.373 181.5,269.5C 181.062,269.435 180.728,269.601 180.5,270C 193.37,282.372 206.37,294.538 219.5,306.5C 214.451,315.125 216.118,322.125 224.5,327.5C 240.53,343.531 256.863,359.198 273.5,374.5C 266.5,374.5 259.5,374.5 252.5,374.5C 229.472,352.804 206.139,331.471 182.5,310.5C 176.226,301.913 168.559,300.413 159.5,306C 157.031,308.441 155.198,311.274 154,314.5C 153.333,329.833 153.333,345.167 154,360.5C 156.903,377.671 165.736,390.671 180.5,399.5C 179.262,399.81 179.262,400.31 180.5,401C 221.128,435.293 261.461,469.959 301.5,505C 303.025,506.009 304.692,506.509 306.5,506.5C 297.247,508.656 287.914,510.323 278.5,511.5C 263.167,511.5 247.833,511.5 232.5,511.5C 142.856,500.612 75.3562,456.279 30,378.5C 13.3053,347.029 3.1386,313.696 -0.5,278.5C -0.5,263.167 -0.5,247.833 -0.5,232.5C 10.3875,142.857 54.7208,75.3573 132.5,30C 163.971,13.3053 197.304,3.1386 232.5,-0.5 Z"/></g>
<g><path style="opacity:1" fill="#fefcfc" d="M 350.5,131.5 C 353.953,137.358 356.12,143.691 357,150.5C 357.667,220.5 357.667,290.5 357,360.5C 352.036,385.797 336.87,400.631 311.5,405C 273.167,405.667 234.833,405.667 196.5,405C 190.967,403.656 185.634,401.823 180.5,399.5C 165.736,390.671 156.903,377.671 154,360.5C 153.333,345.167 153.333,329.833 154,314.5C 155.198,311.274 157.031,308.441 159.5,306C 168.559,300.413 176.226,301.913 182.5,310.5C 182.987,311.473 183.487,312.473 184,313.5C 184.333,328.833 184.667,344.167 185,359.5C 187.072,366.573 191.572,371.406 198.5,374C 216.497,374.5 234.497,374.667 252.5,374.5C 259.5,374.5 266.5,374.5 273.5,374.5C 286.171,374.667 298.838,374.5 311.5,374C 319,371.833 323.833,367 326,359.5C 326.667,290.167 326.667,220.833 326,151.5C 323.833,144 319,139.167 311.5,137C 273.833,136.333 236.167,136.333 198.5,137C 191.572,139.594 187.072,144.427 185,151.5C 184.667,164.5 184.333,177.5 184,190.5C 182.637,196.866 178.804,201.032 172.5,203C 169.445,203.634 166.445,203.468 163.5,202.5C 158.793,200.285 155.627,196.618 154,191.5C 153.082,176.121 153.416,160.787 155,145.5C 161.01,124.158 174.843,110.991 196.5,106C 234.833,105.333 273.167,105.333 311.5,106C 328.86,108.003 341.86,116.503 350.5,131.5 Z"/></g>
<g><path style="opacity:1" fill="#db3a3c" d="M 350.5,131.5 C 351.496,131.414 352.329,131.748 353,132.5C 403.667,191.167 454.333,249.833 505,308.5C 505.483,309.448 505.649,310.448 505.5,311.5C 489.171,381.354 450.838,435.52 390.5,474C 364.532,490.046 336.532,500.879 306.5,506.5C 304.692,506.509 303.025,506.009 301.5,505C 261.461,469.959 221.128,435.293 180.5,401C 179.262,400.31 179.262,399.81 180.5,399.5C 185.634,401.823 190.967,403.656 196.5,405C 234.833,405.667 273.167,405.667 311.5,405C 336.87,400.631 352.036,385.797 357,360.5C 357.667,290.5 357.667,220.5 357,150.5C 356.12,143.691 353.953,137.358 350.5,131.5 Z"/></g>
<g><path style="opacity:1" fill="#db3a3c" d="M 273.5,374.5 C 256.863,359.198 240.53,343.531 224.5,327.5C 229.121,328.007 233.454,327.174 237.5,325C 256.667,305.833 275.833,286.667 295,267.5C 300.445,260.725 300.779,253.725 296,246.5C 276.167,226.667 256.333,206.833 236.5,187C 228.249,182.539 221.749,184.372 217,192.5C 215.993,197.111 216.66,201.445 219,205.5C 231.5,218 244,230.5 256.5,243C 238.836,243.5 221.17,243.667 203.5,243.5C 189.802,229.477 176.468,215.811 163.5,202.5C 166.445,203.468 169.445,203.634 172.5,203C 178.804,201.032 182.637,196.866 184,190.5C 184.333,177.5 184.667,164.5 185,151.5C 187.072,144.427 191.572,139.594 198.5,137C 236.167,136.333 273.833,136.333 311.5,137C 319,139.167 323.833,144 326,151.5C 326.667,220.833 326.667,290.167 326,359.5C 323.833,367 319,371.833 311.5,374C 298.838,374.5 286.171,374.667 273.5,374.5 Z"/></g>
<g><path style="opacity:1" fill="#fefdfd" d="M 224.5,327.5 C 216.118,322.125 214.451,315.125 219.5,306.5C 231.965,294.535 244.298,282.369 256.5,270C 231.502,269.5 206.502,269.333 181.5,269.5C 168.61,261.373 168.277,252.873 180.5,244C 188.159,243.5 195.826,243.334 203.5,243.5C 221.17,243.667 238.836,243.5 256.5,243C 244,230.5 231.5,218 219,205.5C 216.66,201.445 215.993,197.111 217,192.5C 221.749,184.372 228.249,182.539 236.5,187C 256.333,206.833 276.167,226.667 296,246.5C 300.779,253.725 300.445,260.725 295,267.5C 275.833,286.667 256.667,305.833 237.5,325C 233.454,327.174 229.121,328.007 224.5,327.5 Z"/></g>
<g><path style="opacity:1" fill="#db3c3d" d="M 181.5,269.5 C 206.502,269.333 231.502,269.5 256.5,270C 244.298,282.369 231.965,294.535 219.5,306.5C 206.37,294.538 193.37,282.372 180.5,270C 180.728,269.601 181.062,269.435 181.5,269.5 Z"/></g>
<g><path style="opacity:1" fill="#db3a3c" d="M 182.5,310.5 C 206.139,331.471 229.472,352.804 252.5,374.5C 234.497,374.667 216.497,374.5 198.5,374C 191.572,371.406 187.072,366.573 185,359.5C 184.667,344.167 184.333,328.833 184,313.5C 183.487,312.473 182.987,311.473 182.5,310.5 Z"/></g>
</svg>
