<?xml version="1.0" encoding="UTF-8"?>
<svg version="1.1" xmlns="http://www.w3.org/2000/svg" width="24" height="24">
<path d="M0 0 C2.5 1.3125 2.5 1.3125 4 4 C4.31868254 7.6914061 4.22932824 11.30526726 4 15 C4.99 15 5.98 15 7 15 C7 16.32 7 17.64 7 19 C5.865625 19.12375 4.73125 19.2475 3.5625 19.375 C1.7990625 19.684375 1.7990625 19.684375 0 20 C-0.33 20.66 -0.66 21.32 -1 22 C-2.98 22 -4.96 22 -7 22 C-7.33 21.34 -7.66 20.68 -8 20 C-10.32156597 19.59270772 -12.6568787 19.25561323 -15 19 C-15 17.68 -15 16.36 -15 15 C-14.01 15 -13.02 15 -12 15 C-12.04640625 14.25234375 -12.0928125 13.5046875 -12.140625 12.734375 C-12.43234391 4.77461617 -12.43234391 4.77461617 -10.5 1.3125 C-6.92207519 -0.56591052 -3.95187168 -0.75312309 0 0 Z " fill="#FCB216" transform="translate(16,1)"/>
<path d="M0 0 C1.98 0 3.96 0 6 0 C6 0.99 6 1.98 6 3 C4.02 3 2.04 3 0 3 C0 2.01 0 1.02 0 0 Z " fill="#F88A1A" transform="translate(9,20)"/>
</svg>
